<svg width="80" height="80" viewBox="0 0 80 80" fill="none" xmlns="http://www.w3.org/2000/svg">
<path d="M80 40.1246C80 62.1472 62.0914 80 40 80L40.7996 55.3348L44.1811 79.7816L42.3901 55.1681L48.3165 79.1286L43.9544 54.8367L52.3607 78.0484L45.4754 54.344L56.2695 76.5526L46.9364 53.6956L60 74.6577L48.3214 52.8984L63.5114 72.3845L49.6152 51.9614L66.7653 69.7578L50.8036 50.8946L69.7258 66.8064L51.8737 49.7098L72.3607 63.5628L52.8138 48.42L74.6411 60.0623L53.6134 47.0394L76.5419 56.3434L54.2639 45.5829L78.0423 52.4468L54.7581 44.0667L79.1259 48.4152L55.0906 42.5073L79.7809 44.2927L55.2577 40.9217L80 40.1246Z" fill="#00FFDC"/>
<path d="M0 40.1246C0 62.1472 17.9086 80 40 80L39.2003 55.3348L35.8188 79.7815L37.6098 55.1681L31.6835 79.1286L36.0456 54.8367L27.6393 78.0484L34.5246 54.344L23.7305 76.5526L33.0636 53.6956L20 74.6577L31.6786 52.8984L16.4886 72.3845L30.3848 51.9614L13.2348 69.7578L29.1963 50.8946L10.2742 66.8064L28.1262 49.7098L7.63931 63.5628L27.1862 48.42L5.35898 60.0623L26.3866 47.0394L3.45817 56.3434L25.7361 45.5829L1.95774 52.4468L25.2419 44.0667L0.874096 48.4152L24.9094 42.5073L0.219128 44.2927L24.7423 40.9217L0 40.1246Z" fill="#00FFDC"/>
<path d="M40 0.249222C17.9086 0.249222 0 18.102 0 40.1246L24.7423 39.3275L0.219128 35.9565L24.9094 37.742L0.874096 31.8341L25.2419 36.1825L1.95774 27.8024L25.7361 34.6663L3.45817 23.9058L26.3866 33.2099L5.35898 20.1869L27.1862 31.8292L7.63931 16.6864L28.1262 30.5394L10.2742 13.4428L29.1963 29.3546L13.2348 10.4914L30.3848 28.2879L16.4886 7.86474L31.6786 27.3508L20 5.59151L33.0636 26.5536L23.7305 3.69662L34.5246 25.9052L27.6393 2.20086L36.0456 25.4126L31.6835 1.1206L37.6098 25.0811L35.8188 0.467655L39.2003 24.9144L40 0.249222Z" fill="#00FFDC"/>
<path d="M40 0.249222C62.0914 0.249222 80 18.102 80 40.1246L55.2577 39.3275L79.7809 35.9565L55.0906 37.742L79.1259 31.8341L54.7581 36.1825L78.0423 27.8024L54.2639 34.6663L76.5419 23.9058L53.6134 33.2099L74.6411 20.1869L52.8138 31.8292L72.3607 16.6864L51.8737 30.5394L69.7258 13.4428L50.8036 29.3546L66.7653 10.4914L49.6152 28.2879L63.5114 7.86474L48.3214 27.3508L60 5.59151L46.9364 26.5537L56.2695 3.69662L45.4754 25.9052L52.3607 2.20086L43.9544 25.4126L48.3165 1.1206L42.3901 25.0811L44.1811 0.467655L40.7996 24.9144L40 0.249222Z" fill="#00FFDC"/>
</svg>
